M48
INCH
T01C0.0200
T02C0.0150
T03C0.0300
T04C0.0400
T05C0.1181
%
T01
X+012750Y-012700
T02
X+012120Y-011314
X+004250Y-006600
X+006500Y-013200
X+004400Y-005300
X+006065Y-006060
X+006562Y-003350
X+004850Y-013400
X+006150Y-014000
X+007150Y-018250
X+011700Y-017350
X+011700Y-019100
X+013350Y-010950
X+015200Y-011350
X+016350Y-012950
X+017700Y-016600
X+019100Y-013400
X+015950Y-009350
X+014700Y-008300
X+014250Y-006300
X+014250Y-005000
X+016150Y-001900
X+016850Y-002650
X+017350Y-003350
X+017200Y-004500
X+017050Y-005750
X+019400Y-006300
X+019350Y-003000
X+010200Y-000850
X+011550Y-000850
X+010200Y-001950
X+011550Y-001950
X+007150Y-004400
X+010600Y-004350
X+004550Y-000900
X+004550Y-002850
X+003450Y-000900
X+000700Y-003350
X+003450Y-002850
X+000700Y-005350
X+001850Y-009450
X+001750Y-012850
X+000700Y-015100
X+003000Y-017200
X+005000Y-009100
X+007350Y-009200
X+005150Y-010950
X+010800Y-012000
X+008650Y-015900
X+006800Y-014700
X+012850Y-013950
X+011850Y-012050
X+009250Y-010800
X+006600Y-006100
X+008450Y-006150
X+008900Y-004300
X+012500Y-003200
X+013150Y-002800
X+010300Y-009250
X+004150Y-009050
X+003400Y-007950
X+015200Y-012950
X+016350Y-011350
T03
X+016750Y-007250
X+015750Y-007250
X+014750Y-007250
X+013750Y-007250
X+012750Y-007250
X+011750Y-007250
X+010750Y-007250
X+009750Y-007250
X+008750Y-007250
X+007750Y-007250
X+006750Y-007250
X+005750Y-007250
X+004750Y-007250
X+003750Y-007250
X+003750Y-010250
X+004750Y-010250
X+005750Y-010250
X+006750Y-010250
X+007750Y-010250
X+008750Y-010250
X+009750Y-010250
X+010750Y-010250
X+011750Y-010250
X+012750Y-010250
X+013750Y-010250
X+014750Y-010250
X+015750Y-010250
X+016742Y-010250
X+008100Y-011650
X+004100Y-011650
X+004600Y-016650
X+004600Y-012650
T04
X+001750Y-010815
X+001750Y-011800
X+014550Y-001750
X+013565Y-001750
X+001750Y-007500
X+001750Y-008484
X+001750Y-004250
X+001750Y-005234
X+018500Y-003750
X+018500Y-004750
X+018500Y-005750
X+018500Y-010250
X+018500Y-009265
X+015750Y-003750
X+015750Y-004750
X+015750Y-005750
X+008350Y-018250
X+009334Y-018250
X+010318Y-018250
X+018500Y-015500
X+018500Y-014515
X+013700Y-018250
X+014684Y-018250
X+015668Y-018250
X+011950Y-013900
X+010950Y-013900
X+009950Y-013900
X+008950Y-013900
X+007950Y-013900
X+007950Y-014900
X+008950Y-014900
X+009950Y-014900
X+010950Y-014900
X+011950Y-014900
X+004300Y-018250
X+005284Y-018250
X+001750Y-014250
X+001750Y-015234
X+007184Y-001750
X+006200Y-001750
T05
X+018500Y-001500
X+018500Y-018500
X+001500Y-018500
X+001500Y-001500
M30
